<svg width="22" height="20" viewBox="0 0 22 20" fill="none" xmlns="http://www.w3.org/2000/svg">
<path d="M7 4.75195V5.75195C7 7.96109 8.79086 9.75195 11 9.75195C13.2091 9.75195 15 7.96109 15 5.75195V4.75195M9.76911 0.751953H12.2309C14.8742 0.751953 16.1958 0.751953 17.1862 1.39109C17.5077 1.59863 17.7979 1.85125 18.0477 2.14122C18.817 3.03421 18.9988 4.34329 19.3624 6.96146L19.8624 10.5615C20.33 13.9278 20.5638 15.611 19.8255 16.8274C19.5885 17.2179 19.2863 17.5649 18.9322 17.8534C17.8289 18.752 16.1296 18.752 12.7309 18.752H9.26911C5.87042 18.752 4.17108 18.752 3.06784 17.8534C2.71367 17.5649 2.41152 17.2179 2.17451 16.8274C1.43624 15.611 1.67002 13.9278 2.13757 10.5615L2.63757 6.96146C3.0012 4.3433 3.18302 3.03421 3.95232 2.14122C4.20212 1.85125 4.49225 1.59863 4.81383 1.39109C5.80417 0.751953 7.12582 0.751953 9.76911 0.751953Z" stroke="#8F7D6A" stroke-width="1.5" stroke-linecap="round" stroke-linejoin="round"/>
</svg>
