<svg width="25" height="25" viewBox="0 0 25 25" fill="none" xmlns="http://www.w3.org/2000/svg">
<path d="M10 19.748C10 20.5765 9.32843 21.248 8.5 21.248C7.67157 21.248 7 20.5765 7 19.748C7 18.9196 7.67157 18.248 8.5 18.248C9.32843 18.248 10 18.9196 10 19.748Z" stroke="#503217" stroke-width="1.5" stroke-linecap="round" stroke-linejoin="round"/>
<path d="M18 19.748C18 20.5765 17.3284 21.248 16.5 21.248C15.6716 21.248 15 20.5765 15 19.748C15 18.9196 15.6716 18.248 16.5 18.248C17.3284 18.248 18 18.9196 18 19.748Z" stroke="#503217" stroke-width="1.5" stroke-linecap="round" stroke-linejoin="round"/>
<path d="M5.5 14.998C5.08579 14.998 4.75 15.3338 4.75 15.748C4.75 16.1623 5.08579 16.498 5.5 16.498V14.998ZM5.5 12.748H4.75C4.75 13.1623 5.08579 13.498 5.5 13.498V12.748ZM3.5 3.49805C3.08579 3.49805 2.75 3.83383 2.75 4.24805C2.75 4.66226 3.08579 4.99805 3.5 4.99805V3.49805ZM16.5 10.498C16.9142 10.498 17.25 10.1623 17.25 9.74805C17.25 9.33383 16.9142 8.99805 16.5 8.99805V10.498ZM12.5 13.498C12.9142 13.498 13.25 13.1623 13.25 12.748C13.25 12.3338 12.9142 11.998 12.5 11.998V13.498ZM5.5 8.99805C5.08579 8.99805 4.75 9.33383 4.75 9.74805C4.75 10.1623 5.08579 10.498 5.5 10.498V8.99805ZM18.959 14.1183L18.2918 13.7758L18.959 14.1183ZM8.5 6.99805H18.0873V5.49805H8.5V6.99805ZM20.0889 10.2758L18.2918 13.7758L19.6262 14.4609L21.4233 10.9609L20.0889 10.2758ZM16.2903 14.998H5.5V16.498H16.2903V14.998ZM6.25 12.748V6.24805H4.75V12.748H6.25ZM5.5 10.498H16.5V8.99805H5.5V10.498ZM5.5 13.498H12.5V11.998H5.5V13.498ZM18.2918 13.7758C17.9065 14.5262 17.1338 14.998 16.2903 14.998V16.498C17.6962 16.498 18.984 15.7116 19.6262 14.4609L18.2918 13.7758ZM18.0873 6.99805C19.7705 6.99805 20.8577 8.77844 20.0889 10.2758L21.4233 10.9609C22.7046 8.46537 20.8926 5.49805 18.0873 5.49805V6.99805ZM6.25 6.24805C6.25 4.72926 5.01878 3.49805 3.5 3.49805V4.99805C4.19036 4.99805 4.75 5.55769 4.75 6.24805H6.25ZM8.5 5.49805C6.42893 5.49805 4.75 7.17698 4.75 9.24805H6.25C6.25 8.00541 7.25736 6.99805 8.5 6.99805V5.49805Z" fill="#503217"/>
</svg>
