<svg width="115" height="116" viewBox="0 0 115 116" fill="none" xmlns="http://www.w3.org/2000/svg">
<path d="M48.9819 102.821C54.3621 107.387 60.6051 109.182 68.2811 103.8C78.1804 96.793 86.603 87.9051 93.0681 77.6435C97.3502 70.8965 101.437 63.7203 103.47 55.9325C105.69 47.4183 104.095 41.1968 96.6681 35.865C83.9383 26.7176 64.2291 25.8107 49.0737 26.037C38.8367 26.1887 25.309 28.588 20.9367 39.2804C18.8286 44.4262 19.9509 50.2964 21.5029 55.6292C26.3417 72.3946 35.4202 91.3135 48.9819 102.821Z" fill="#EBE9E0"/>
<path d="M70.3327 51.332H43.666M43.666 51.332L48.666 46.332M43.666 51.332L48.666 56.332M43.666 64.6654H70.3327M70.3327 64.6654L65.3327 59.6654M70.3327 64.6654L65.3327 69.6654" stroke="#503217" stroke-width="2.5" stroke-linecap="round" stroke-linejoin="round"/>
</svg>
