<svg width="8" height="13" viewBox="0 0 8 13" fill="none" xmlns="http://www.w3.org/2000/svg">
<path d="M2.44612 7.5891C2.40035 7.5891 1.39336 7.5891 0.93564 7.5891C0.691522 7.5891 0.615234 7.49756 0.615234 7.2687C0.615234 6.6584 0.615234 6.03285 0.615234 5.42255C0.615234 5.17843 0.706779 5.10214 0.93564 5.10214L2.44612 5.10214C2.44612 5.05637 2.44612 4.17144 2.44612 3.75949C2.44612 3.14919 2.55293 2.56941 2.85807 2.0354C3.17848 1.48614 3.6362 1.11996 4.21598 0.906354C4.59742 0.769037 4.97885 0.708008 5.39081 0.708008L6.88603 0.708008C7.09964 0.708008 7.19118 0.799552 7.19118 1.01316L7.19118 2.7525C7.19118 2.9661 7.09964 3.05765 6.88603 3.05765C6.47408 3.05765 6.06213 3.05765 5.65018 3.07291C5.23823 3.07291 5.02463 3.27125 5.02463 3.69846C5.00937 4.15618 5.02463 4.59865 5.02463 5.07163L6.79449 5.07163C7.03861 5.07163 7.13015 5.16317 7.13015 5.40729L7.13015 7.25344C7.13015 7.49756 7.05386 7.57384 6.79449 7.57384C6.24522 7.57384 5.0704 7.57384 5.02463 7.57384L5.02463 12.5478C5.02463 12.8071 4.94834 12.8987 4.67371 12.8987C4.0329 12.8987 3.40734 12.8987 2.76653 12.8987C2.53767 12.8987 2.44612 12.8071 2.44612 12.5783C2.44612 10.9762 2.44612 7.63487 2.44612 7.5891Z" fill="#F2F2F2"/>
</svg>
