<svg width="15" height="14" viewBox="0 0 15 14" fill="none" xmlns="http://www.w3.org/2000/svg">
<g clip-path="url(#clip0_1678_88)">
<path d="M14.2623 4.15955C14.2299 3.42484 14.1111 2.91974 13.9409 2.48206C13.7653 2.01747 13.4952 1.60153 13.1413 1.25576C12.7955 0.904599 12.3768 0.631735 11.9176 0.4589C11.4774 0.288704 10.975 0.169893 10.2402 0.1375C9.50005 0.102363 9.26507 0.0942382 7.38773 0.0942382C5.5104 0.0942382 5.27542 0.102363 4.53797 0.134756C3.80326 0.16715 3.29816 0.286066 2.86058 0.456157C2.39589 0.631735 1.97995 0.901856 1.63417 1.25576C1.28302 1.60153 1.01026 2.02022 0.837319 2.47942C0.667122 2.91974 0.548311 3.4221 0.515918 4.1568C0.480781 4.897 0.472656 5.13198 0.472656 7.00932C0.472656 8.88665 0.480781 9.12164 0.513174 9.85909C0.545568 10.5938 0.664484 11.0989 0.834681 11.5366C1.01026 12.0012 1.28302 12.4171 1.63417 12.7629C1.97995 13.114 2.39863 13.3869 2.85784 13.5597C3.29816 13.7299 3.80052 13.8487 4.53533 13.8811C5.27267 13.9136 5.50776 13.9217 7.3851 13.9217C9.26243 13.9217 9.49742 13.9136 10.2349 13.8811C10.9696 13.8487 11.4747 13.7299 11.9122 13.5597C12.8415 13.2005 13.5762 12.4657 13.9355 11.5366C14.1056 11.0963 14.2245 10.5938 14.2569 9.85908C14.2893 9.12164 14.2974 8.88665 14.2974 7.00932C14.2974 5.13198 14.2947 4.897 14.2623 4.15955ZM13.0171 9.80506C12.9873 10.4804 12.8739 10.845 12.7794 11.0881C12.547 11.6905 12.0689 12.1686 11.4666 12.401C11.2234 12.4955 10.8561 12.6089 10.1835 12.6386C9.45415 12.6711 9.23542 12.6791 7.39048 12.6791C5.54554 12.6791 5.32406 12.6711 4.59737 12.6386C3.92207 12.6089 3.55741 12.4955 3.3143 12.401C3.01453 12.2902 2.74167 12.1146 2.52019 11.885C2.29059 11.6608 2.11501 11.3906 2.00422 11.0909C1.90968 10.8478 1.79625 10.4804 1.7666 9.8078C1.7341 9.07848 1.72608 8.85964 1.72608 7.0147C1.72608 5.16976 1.7341 4.94828 1.7666 4.2217C1.79625 3.5464 1.90967 3.18173 2.00422 2.93863C2.11501 2.63875 2.29059 2.36599 2.52293 2.14441C2.74705 1.91481 3.01717 1.73923 3.31704 1.62854C3.56015 1.534 3.92756 1.42057 4.60011 1.39082C5.32944 1.35842 5.54828 1.3503 7.39312 1.3503C9.2408 1.3503 9.45954 1.35842 10.1862 1.39082C10.8615 1.42057 11.2262 1.534 11.4693 1.62854C11.7691 1.73923 12.0419 1.91481 12.2634 2.14441C12.493 2.36863 12.6686 2.63875 12.7794 2.93863C12.8739 3.18173 12.9873 3.54903 13.0171 4.2217C13.0495 4.95102 13.0576 5.16976 13.0576 7.0147C13.0576 8.85964 13.0495 9.07574 13.0171 9.80506Z" fill="#F2F2F2"/>
<path d="M7.38606 3.45703C5.42505 3.45703 3.83398 5.048 3.83398 7.00911C3.83398 8.97022 5.42505 10.5612 7.38606 10.5612C9.34718 10.5612 10.9381 8.97022 10.9381 7.00911C10.9381 5.048 9.34718 3.45703 7.38606 3.45703ZM7.38606 9.31325C6.11386 9.31325 5.08192 8.28142 5.08192 7.00911C5.08192 5.7368 6.11386 4.70496 7.38606 4.70496C8.65837 4.70496 9.69021 5.7368 9.69021 7.00911C9.69021 8.28142 8.65837 9.31325 7.38606 9.31325Z" fill="#F2F2F2"/>
<path d="M11.7856 3.68911C11.7856 4.14705 11.4142 4.51836 10.9562 4.51836C10.4983 4.51836 10.127 4.14705 10.127 3.68911C10.127 3.23107 10.4983 2.85986 10.9562 2.85986C11.4142 2.85986 11.7856 3.23107 11.7856 3.68911Z" fill="#F2F2F2"/>
</g>
<defs>
<clipPath id="clip0_1678_88">
<rect width="13.8275" height="13.8275" fill="white" transform="translate(0.447266 0.0942383)"/>
</clipPath>
</defs>
</svg>
