<svg width="115" height="116" viewBox="0 0 115 116" fill="none" xmlns="http://www.w3.org/2000/svg">
<path d="M48.9819 102.822C54.3621 107.388 60.6051 109.183 68.2811 103.801C78.1804 96.794 86.603 87.906 93.0681 77.6445C97.3502 70.8975 101.437 63.7212 103.47 55.9335C105.69 47.4193 104.095 41.1977 96.6681 35.8659C83.9383 26.7186 64.2291 25.8117 49.0737 26.038C38.8367 26.1897 25.309 28.589 20.9367 39.2814C18.8286 44.4271 19.9509 50.2974 21.5029 55.6302C26.3417 72.3956 35.4202 91.3145 48.9819 102.822Z" fill="#EBE9E0"/>
<path d="M69.25 60C69.25 60.6904 68.6904 61.25 68 61.25C67.3096 61.25 66.75 60.6904 66.75 60C66.75 59.3096 67.3096 58.75 68 58.75C68.6904 58.75 69.25 59.3096 69.25 60Z" fill="#503217"/>
<path d="M43.0333 55.0003H72.9667M60.5 60.0003H63.8333M50.2 73.3337H65.8C68.7998 73.3337 70.2997 73.3337 71.3511 72.5697C71.6907 72.323 71.9893 72.0244 72.2361 71.6848C73 70.6333 73 69.1334 73 66.1337V53.867C73 50.8672 73 49.3673 72.2361 48.3159C71.9893 47.9763 71.6907 47.6776 71.3511 47.4309C70.2997 46.667 68.7998 46.667 65.8 46.667H50.2C47.2002 46.667 45.7003 46.667 44.6489 47.4309C44.3093 47.6776 44.0107 47.9763 43.7639 48.3159C43 49.3673 43 50.8672 43 53.867V66.1337C43 69.1334 43 70.6333 43.7639 71.6848C44.0107 72.0244 44.3093 72.323 44.6489 72.5697C45.7003 73.3337 47.2002 73.3337 50.2 73.3337Z" stroke="#503217" stroke-width="2.5" stroke-linecap="round" stroke-linejoin="round"/>
</svg>
