<svg width="17" height="18" viewBox="0 0 17 18" fill="none" xmlns="http://www.w3.org/2000/svg">
<path d="M15.1539 4.8669C14.6631 5.07954 14.1561 5.22675 13.6163 5.29218C14.1724 4.96504 14.5977 4.44162 14.794 3.8037C14.2706 4.11448 13.6981 4.32712 13.0929 4.45798C12.6022 3.93456 11.8988 3.60742 11.1301 3.60742C9.64159 3.60742 8.44754 4.81783 8.44754 6.28995C8.44754 6.50259 8.46389 6.69887 8.51297 6.89515C6.28843 6.79701 4.32561 5.71746 3.0007 4.09813C2.052 5.79924 3.1152 7.20593 3.81854 7.68028C3.39327 7.68028 2.96799 7.54943 2.60814 7.35314C2.60814 8.67805 3.54048 9.77396 4.75089 10.0193C4.48918 10.1011 3.90033 10.1502 3.54048 10.0684C3.88397 11.1316 4.88174 11.9167 6.04308 11.9331C5.12709 12.6528 3.78583 13.2253 2.06836 13.0453C3.26241 13.8141 4.6691 14.2557 6.19029 14.2557C11.1301 14.2557 13.8126 10.1665 13.8126 6.63344C13.8126 6.51894 13.8126 6.40445 13.7962 6.28995C14.3524 5.88103 14.8104 5.40668 15.1539 4.8669Z" fill="#F2F2F2"/>
</svg>
