<svg width="115" height="115" viewBox="0 0 115 115" fill="none" xmlns="http://www.w3.org/2000/svg">
<path d="M49.0972 102.361C54.4773 106.928 60.7204 108.722 68.3963 103.34C78.2956 96.333 86.7182 87.4451 93.1833 77.1836C97.4654 70.4366 101.552 63.2603 103.586 55.4726C105.805 46.9583 104.21 40.7368 96.7833 35.405C84.0535 26.2577 64.3443 25.3508 49.1889 25.577C38.952 25.7288 25.4242 28.128 21.0519 38.8205C18.9439 43.9662 20.0662 49.8364 21.6181 55.1692C26.4569 71.9347 35.5355 90.8535 49.0972 102.361Z" fill="#EBE9E0"/>
<path d="M55.8333 60.8327L57.6672 63.2778C57.9389 63.6401 58.0747 63.8212 58.2563 63.861C58.3144 63.8737 58.3743 63.876 58.4331 63.8676C58.6171 63.8417 58.7663 63.6712 59.0645 63.3304L64.1667 57.4993M60 75.8327C68.2068 75.8327 73.0739 65.9618 74.6012 56.3199C74.8111 54.9945 74.9161 54.3319 74.6843 53.6369C74.6134 53.4244 74.4972 53.1786 74.3779 52.9889C73.9879 52.3688 73.3527 51.9963 72.0822 51.2512L62.7316 45.7679C61.5507 45.0753 60.9602 44.7291 60.3176 44.6607C60.1065 44.6382 59.8935 44.6382 59.6824 44.6607C59.0398 44.7291 58.4493 45.0753 57.2684 45.7679L47.9178 51.2512C46.6473 51.9963 46.0121 52.3688 45.6221 52.9889C45.5028 53.1786 45.3866 53.4244 45.3157 53.6369C45.0839 54.3319 45.1889 54.9945 45.3988 56.3199C46.9261 65.9618 51.7932 75.8327 60 75.8327Z" stroke="#503217" stroke-width="2.5" stroke-linecap="round" stroke-linejoin="round"/>
</svg>
